<svg width="365" height="386" viewBox="0 0 365 386" fill="none" xmlns="http://www.w3.org/2000/svg">
<path d="M189.327 119.592L190.31 119.691L219.037 12.193L203.664 122.694L204.607 122.986L253.995 24.0783L217.074 128.858L217.938 129.334L285.859 43.3268L228.972 137.816L229.719 138.459L313.235 69.1181L238.838 149.175L239.435 149.959L334.917 100.341L246.244 162.439L246.661 163.331L349.939 135.639L250.866 177.029L251.08 177.99L357.623 173.462L252.503 192.31V193.294L357.623 212.141L251.08 207.614L250.866 208.575L349.939 249.965L246.661 222.273L246.244 223.165L334.917 285.262L239.435 235.645L238.838 236.429L313.235 316.486L229.719 247.145L228.972 247.788L285.859 342.277L217.938 256.269L217.074 256.745L253.995 361.525L204.607 262.618L203.664 262.91L219.037 373.411L190.31 265.913L189.327 266.012L182.5 377.429L175.673 266.012L174.69 265.913L145.963 373.411L161.336 262.91L160.393 262.618L111.005 361.525L147.926 256.745L147.062 256.269L79.1414 342.277L136.028 247.788L135.281 247.145L51.7648 316.486L126.162 236.429L125.565 235.645L30.0826 285.262L118.756 223.165L118.339 222.273L15.0615 249.965L114.134 208.575L113.92 207.614L7.37692 212.141L112.497 193.294V192.31L7.37692 173.462L113.92 177.99L114.134 177.029L15.0615 135.639L118.339 163.331L118.756 162.439L30.0827 100.341L125.565 149.959L126.162 149.175L51.7648 69.1181L135.281 138.459L136.028 137.816L79.1414 43.3269L147.062 129.334L147.926 128.858L111.005 24.0783L160.393 122.986L161.336 122.694L145.963 12.193L174.69 119.691L175.673 119.592L182.5 8.17494L189.327 119.592Z" stroke="white"/>
</svg>
